# Blender v2.77 (sub 0) OBJ File: 'dummy.blend'
# www.blender.org
mtllib livingroom9_layout.mtl
o wall.034
v -4.801283 2.794712 3.310522
v -4.801283 -0.105293 3.310522
v -4.801283 -0.105293 -2.437092
v -4.801283 2.794712 -2.437091
v 2.522122 2.794712 3.310522
v 2.522122 -0.105293 3.310522
v -0.475746 -0.105293 -2.437092
v 2.522122 2.794712 -2.437091
v 2.522122 -0.105293 -2.437092
v -0.475688 -0.105146 -2.436877
vt 0.2947 0.8105
vt -2.6053 0.8105
vt -2.6053 -4.9371
vt 0.2947 0.0629
vt 0.2947 5.8105
vt -2.6053 0.0629
vt 0.0221 0.2947
vt 0.0221 -2.6053
vt -7.3013 -2.6053
vt 0.6987 0.3947
vt 0.6987 3.2947
vt 8.0221 3.2947
vt 0.0243 0.3947
vt 3.0221 3.2947
vt -4.3013 3.2947
vt -4.3013 0.3947
vt 0.2947 0.0629
vt -2.6053 0.0629
vt -2.6053 5.8105
vt 0.3947 0.8105
vt 3.2947 0.8105
vt 3.2947 -4.9371
vt 0.0221 0.3947
vt 0.0221 3.2947
vt -2.9757 0.3949
vn 1.0000 0.0000 0.0000
vn 0.0000 0.0000 -1.0000
vn 0.0000 -0.0000 1.0000
vn -1.0000 0.0000 0.0000
vn 0.0001 -0.0000 1.0000
usemtl wall.034
s 1
f 1/1/1 2/2/1 3/3/1
f 4/4/1 1/5/1 3/6/1
f 5/7/2 6/8/2 2/9/2
f 2/10/2 1/11/2 5/12/2
f 7/13/3 8/14/3 4/15/3 3/16/3
f 8/17/4 9/18/4 6/19/4
f 6/20/4 5/21/4 8/22/4
f 9/23/5 8/24/5 10/25/5
o floor.004
v -4.801283 -0.103929 3.310522
v -4.801283 -0.103929 -2.437091
v 2.522122 -0.103929 -2.437091
v 2.522122 -0.103929 3.310522
vt 0.6987 0.8105
vt 0.6987 -4.9371
vt 8.0221 -4.9371
vt 0.0221 0.8105
vt -7.3013 0.8105
vt 0.0221 -4.9371
vn 0.0000 -1.0000 -0.0000
usemtl floor.004
s 1
f 11/26/6 12/27/6 13/28/6
f 14/29/6 11/30/6 13/31/6
o ceiling.019
v -4.801283 2.794712 3.310522
v -4.801283 2.794712 -2.437091
v 2.522122 2.794712 -2.437091
v 2.522122 2.794712 3.310522
vt 0.6987 0.8105
vt 0.6987 -4.9371
vt 8.0221 -4.9371
vt 0.0221 0.8105
vt -7.3013 0.8105
vt 0.0221 -4.9371
vn 0.0000 -1.0000 -0.0000
usemtl ceiling.000
s 1
f 15/32/7 16/33/7 17/34/7
f 18/35/7 15/36/7 17/37/7
